<svg xmlns="http://www.w3.org/2000/svg" viewBox="0 0 512 512" role="img" aria-labelledby="title desc">
  <title id="title">VestBlock monogram</title>
  <desc id="desc">A brass VestBlock VB monogram on deep evergreen.</desc>
  <rect width="512" height="512" rx="76" fill="#123128"/>
  <rect x="40" y="40" width="432" height="432" rx="50" fill="#A88752"/>
  <rect x="58" y="58" width="396" height="396" rx="36" fill="#F4F0E7"/>
  <path d="M112 139h64l80 206 80-206h64L287 382h-62L112 139Z" fill="#10130F"/>
  <path d="M286 139h89c62 0 97 24 97 67 0 26-14 45-39 56 33 10 51 31 51 61 0 47-38 72-108 72h-90v-51h90c29 0 44-8 44-25 0-18-15-26-46-26h-88v-49h82c27 0 40-9 40-27 0-17-14-26-42-26h-80v-52Z" fill="#1D4438"/>
  <rect x="58" y="423" width="396" height="31" rx="15.5" fill="#A88752"/>
</svg>
